<?xml version="1.0" encoding="UTF-8"?>
<svg xmlns="http://www.w3.org/2000/svg" xmlns:xlink="http://www.w3.org/1999/xlink" width="24px" height="24px" viewBox="0 0 24 23" version="1.1">
<g id="surface1">
<path style=" stroke:none;fill-rule:nonzero;fill:rgb(100%,90.980393%,7.058824%);fill-opacity:1;" d="M 24 21.203125 C 24 22.195312 23.160156 23 22.125 23 L 1.875 23 C 0.839844 23 0 22.195312 0 21.203125 L 0 1.796875 C 0 0.804688 0.839844 0 1.875 0 L 22.125 0 C 23.160156 0 24 0.804688 24 1.796875 Z M 24 21.203125 "/>
<path style=" stroke:none;fill-rule:nonzero;fill:rgb(0%,0%,0%);fill-opacity:1;" d="M 12 3.234375 C 6.613281 3.234375 2.25 6.53125 2.25 10.601562 C 2.25 13.230469 4.074219 15.539062 6.820312 16.84375 C 6.671875 17.335938 5.859375 20.019531 5.828125 20.230469 C 5.828125 20.230469 5.808594 20.386719 5.914062 20.449219 C 6.023438 20.507812 6.148438 20.460938 6.148438 20.460938 C 6.457031 20.421875 9.707031 18.234375 10.269531 17.851562 C 10.832031 17.929688 11.410156 17.96875 12 17.96875 C 17.386719 17.96875 21.75 14.671875 21.75 10.601562 C 21.75 6.53125 17.386719 3.234375 12 3.234375 Z M 12 3.234375 "/>
<path style=" stroke:none;fill-rule:nonzero;fill:rgb(100%,90.980393%,7.058824%);fill-opacity:1;" d="M 6.609375 13.171875 C 6.300781 13.171875 6.046875 12.941406 6.046875 12.660156 L 6.046875 9.457031 L 5.167969 9.457031 C 4.863281 9.457031 4.617188 9.21875 4.617188 8.929688 C 4.617188 8.636719 4.863281 8.398438 5.167969 8.398438 L 8.050781 8.398438 C 8.355469 8.398438 8.601562 8.636719 8.601562 8.929688 C 8.601562 9.21875 8.355469 9.457031 8.050781 9.457031 L 7.171875 9.457031 L 7.171875 12.660156 C 7.171875 12.941406 6.917969 13.171875 6.609375 13.171875 Z M 11.542969 13.167969 C 11.308594 13.167969 11.128906 13.074219 11.074219 12.929688 L 10.796875 12.230469 L 9.078125 12.230469 L 8.800781 12.929688 C 8.746094 13.074219 8.566406 13.167969 8.332031 13.167969 C 8.210938 13.167969 8.089844 13.140625 7.976562 13.09375 C 7.820312 13.023438 7.671875 12.835938 7.84375 12.328125 L 9.1875 8.933594 C 9.28125 8.675781 9.570312 8.410156 9.9375 8.402344 C 10.304688 8.410156 10.59375 8.675781 10.6875 8.933594 L 12.03125 12.324219 C 12.203125 12.835938 12.054688 13.023438 11.898438 13.09375 C 11.785156 13.140625 11.664062 13.167969 11.542969 13.167969 Z M 10.5 11.273438 L 9.9375 9.746094 L 9.375 11.273438 Z M 12.9375 13.09375 C 12.640625 13.09375 12.398438 12.871094 12.398438 12.601562 L 12.398438 8.9375 C 12.398438 8.640625 12.65625 8.398438 12.972656 8.398438 C 13.289062 8.398438 13.546875 8.640625 13.546875 8.9375 L 13.546875 12.105469 L 14.742188 12.105469 C 15.039062 12.105469 15.28125 12.328125 15.28125 12.601562 C 15.28125 12.871094 15.039062 13.09375 14.742188 13.09375 Z M 16.0625 13.167969 C 15.753906 13.167969 15.5 12.925781 15.5 12.628906 L 15.5 8.9375 C 15.5 8.640625 15.753906 8.398438 16.0625 8.398438 C 16.371094 8.398438 16.625 8.640625 16.625 8.9375 L 16.625 10.097656 L 18.195312 8.59375 C 18.273438 8.515625 18.386719 8.472656 18.507812 8.472656 C 18.648438 8.472656 18.789062 8.53125 18.894531 8.632812 C 18.992188 8.726562 19.050781 8.847656 19.058594 8.976562 C 19.066406 9.101562 19.023438 9.21875 18.933594 9.304688 L 17.652344 10.53125 L 19.039062 12.289062 C 19.128906 12.402344 19.167969 12.546875 19.144531 12.6875 C 19.125 12.832031 19.046875 12.957031 18.925781 13.042969 C 18.828125 13.113281 18.710938 13.152344 18.589844 13.152344 C 18.414062 13.152344 18.246094 13.074219 18.140625 12.9375 L 16.820312 11.265625 L 16.625 11.449219 L 16.625 12.628906 C 16.625 12.925781 16.375 13.164062 16.0625 13.167969 Z M 16.0625 13.167969 "/>
</g>
</svg>
